<?xml version="1.0" standalone="no"?>
<!DOCTYPE svg PUBLIC "-//W3C//DTD SVG 20010904//EN"
 "http://www.w3.org/TR/2001/REC-SVG-20010904/DTD/svg10.dtd">
<svg version="1.0" xmlns="http://www.w3.org/2000/svg"
 width="100.000000pt" height="100.000000pt" viewBox="0 0 100.000000 100.000000"
 preserveAspectRatio="xMidYMid meet">

<g transform="translate(0.000000,100.000000) scale(0.100000,-0.100000)"
fill="#5E4338" stroke="none">
<path d="M446 971 c-4 -5 -2 -21 4 -36 5 -14 10 -27 10 -29 0 -1 -13 -1 -30 2
-16 2 -41 1 -55 -2 -30 -8 -65 -60 -65 -96 0 -31 -43 -55 -71 -40 -32 18 -74
11 -98 -14 -22 -24 -23 -29 -17 -138 3 -62 7 -122 8 -133 0 -11 -2 -67 -7
-123 -7 -87 -13 -115 -41 -174 -19 -38 -34 -78 -34 -87 0 -51 76 -62 435 -68
116 -1 233 -6 261 -9 117 -14 213 65 214 177 0 46 -36 101 -75 114 -25 8 -29
15 -27 37 2 16 -7 46 -19 68 -21 36 -21 44 -11 91 7 28 12 88 12 133 0 68 -4
88 -20 109 -24 30 -60 40 -95 27 -41 -16 -75 -3 -75 29 0 37 -35 89 -65 97
-14 3 -39 4 -55 2 -26 -4 -31 -1 -37 21 -10 43 -34 64 -47 42z m12 -117 c20
-14 24 -14 44 0 33 23 74 20 92 -6 22 -30 20 -61 -4 -83 -11 -10 -20 -24 -20
-30 0 -11 -47 -25 -90 -26 -56 -2 -130 54 -130 98 0 54 60 81 108 47z m216
-119 c21 -14 26 -14 54 2 29 17 31 17 51 -1 56 -51 1 -132 -100 -151 l-36 -7
-5 47 c-3 25 -13 54 -22 63 -14 16 -14 20 0 40 18 26 27 27 58 7z m-414 -6 c8
0 28 3 44 7 22 5 32 3 42 -11 12 -16 11 -21 -2 -36 -9 -10 -19 -39 -21 -64 -6
-49 -9 -50 -65 -35 -54 15 -98 56 -98 90 0 52 9 62 49 56 20 -4 43 -7 51 -7z
m201 -65 c16 -15 20 -15 41 0 47 33 98 8 98 -50 0 -45 -21 -54 -120 -54 -98 0
-120 9 -120 52 0 59 60 89 101 52z m-276 -84 c3 -5 38 -20 78 -32 61 -19 94
-23 217 -23 148 1 232 15 288 52 30 19 35 13 27 -31 -6 -31 -14 -39 -59 -60
-125 -61 -386 -61 -512 0 -50 24 -64 42 -64 87 0 18 15 23 25 7z m26 -136
c110 -57 428 -56 538 1 31 15 31 15 31 -10 0 -14 -4 -25 -8 -25 -12 0 -32 -47
-32 -75 0 -23 -2 -24 -44 -19 -38 6 -47 3 -76 -23 -43 -39 -51 -100 -21 -168
11 -26 21 -50 21 -52 0 -6 -326 4 -440 13 -41 3 -79 9 -83 13 -4 4 8 41 28 82
23 47 35 88 35 115 0 52 12 164 17 164 2 0 18 -7 34 -16z m609 -78 c0 -25 -12
-46 -26 -46 -15 0 -18 18 -8 44 8 20 34 21 34 2z m-86 -103 c33 -15 38 -15 75
2 49 21 83 14 99 -20 17 -37 15 -70 -8 -114 -48 -96 -212 -96 -260 0 -23 43
-25 80 -9 112 22 42 48 47 103 20z"/>
</g>
</svg>
