<svg xmlns="http://www.w3.org/2000/svg" version="1.0" viewBox="0 0 100 100">
  <defs/>
  <path d="M43.2 5.1C38.5 6.5 32.3 13.1 31 18c-1.5 5.5-1 11.5 1 11.5 1.1 0 1.7-1.6 2.1-5.8 1.1-10 6.6-15.2 15.9-15.2s14.8 5.2 15.9 15.2c.4 4.2 1 5.8 2.1 5.8 2.5 0 1.9-11.4-1-15.9-4.6-7.5-15-11.2-23.8-8.5zM28.8 33.9c-1.1 1.5-2.8 2.1-6.9 2.3l-5.4.3-2.2 9c-1.3 4.9-2.4 10.8-2.5 12.9-.3 3.8-.2 4 3.7 5.1 6.7 2 25.9 4.5 34.4 4.5 9 0 27.4-2.3 34.2-4.3 4.3-1.3 4.4-1.4 4.1-5.3-.1-2.1-1.2-8-2.5-12.9l-2.2-9-5.4-.3c-4.1-.2-5.8-.8-6.9-2.3-1.7-2.5-4.8-2.4-6.4.1-1.2 1.8-2.4 2-14.8 2s-13.6-.2-14.8-2c-1.6-2.5-4.7-2.6-6.4-.1z"/>
  <path d="M11.6 68.2C10.5 71.7 8 92.2 8.5 93c.3.6 2.2 1 4.1 1 1.9 0 3.4.4 3.4 1 0 .5 1.4 1 3 1 1.7 0 3-.5 3-1 0-.6 10-1 28-1s28 .4 28 1c0 .5 1.4 1 3 1 1.7 0 3-.5 3-1 0-.6 1.5-1 3.4-1s3.8-.4 4.1-1c.7-1.1-2.5-24.1-3.5-25.3-.4-.4-3.5-.1-7.1.7-3.5.8-10.6 2-15.7 2.6-6.8.9-9.9 1.7-11.3 3.1-2.4 2.4-5.4 2.4-7.8 0-1.4-1.4-4.5-2.2-11.3-3.1-5.1-.6-12.1-1.8-15.6-2.6-7.6-1.7-7.2-1.7-7.6-.2z"/>
</svg>
