<?xml version="1.0" standalone="no"?>
<!DOCTYPE svg PUBLIC "-//W3C//DTD SVG 20010904//EN" "http://www.w3.org/TR/2001/REC-SVG-20010904/DTD/svg10.dtd">
<svg version="1.0" xmlns="http://www.w3.org/2000/svg" width="100.000000pt" height="100.000000pt"
  viewBox="0 0 100.000000 100.000000" preserveAspectRatio="xMidYMid meet">

  <g transform="translate(0.000000,100.000000) scale(0.100000,-0.100000)" fill="#5E4338" stroke="none">
    <path d="M140 588 l0 -275 88 -6 c88 -6 178 -31 239 -67 33 -19 33 -19 66 0
61 36 151 61 240 67 l87 6 0 275 0 275 -85 -7 c-95 -8 -182 -28 -237 -55 -37
-18 -39 -18 -75 0 -56 27 -143 47 -238 55 l-85 7 0 -275z m108 110 c3 57 22
54 22 -4 0 -57 20 -49 21 9 l1 42 9 -40 c13 -67 11 -93 -10 -100 -18 -5 -19
-14 -14 -106 6 -95 5 -101 -13 -97 -17 3 -19 11 -15 101 3 89 2 100 -17 112
-16 12 -19 23 -15 62 7 73 16 84 23 28 l7 -50 1 43z m522 13 c0 -15 -10 -21
-42 -26 -24 -4 -65 -16 -93 -26 -27 -11 -51 -19 -53 -19 -2 0 -2 12 0 27 3 24
11 30 58 45 30 9 72 17 93 17 30 1 37 -3 37 -18z m-350 -161 c0 -148 -2 -170
-16 -170 -13 0 -15 12 -13 70 2 54 -2 74 -15 88 -14 17 -15 26 -5 73 11 52 34
109 44 109 3 0 5 -76 5 -170z m310 36 c0 -20 -7 -26 -47 -35 -25 -7 -59 -19
-75 -27 -28 -14 -28 -14 -28 14 0 27 5 31 53 45 28 9 61 18 72 20 11 3 21 5
23 6 1 0 2 -10 2 -23z m40 -125 c0 -15 -10 -21 -42 -26 -24 -4 -65 -16 -93
-26 -27 -11 -51 -19 -52 -19 -2 0 -3 11 -3 24 0 20 8 27 43 40 67 24 70 24
110 25 30 1 37 -3 37 -18z" />
    <path d="M68 749 c-17 -9 -18 -34 -18 -301 0 -272 1 -290 17 -283 84 34 221
36 338 4 98 -26 92 -26 190 0 117 32 254 30 338 -4 16 -7 17 11 17 284 0 277
-1 291 -19 301 -11 5 -24 10 -30 10 -8 0 -11 -80 -11 -253 l0 -252 -82 4 c-92
4 -165 -9 -252 -46 l-59 -24 -56 24 c-81 36 -156 50 -249 46 l-82 -4 0 252 c0
265 0 267 -42 242z" />
  </g>
</svg>
