<svg version="1.0" xmlns="http://www.w3.org/2000/svg" width="133.333" height="133.333" viewBox="0 0 100 100"><g fill="#5E4338"><path d="M56 7c0 .5-.9 1-2 1-1.8 0-2 .7-2 8v8H41c-10.3 0-11-.1-11-2 0-1.3-.7-2-2-2s-2 .7-2 2c0 1.7-.7 2-4 2-9.2 0-12.7 4.8-11.6 15.8 1.7 17 1.4 16.2 5.7 16.2 3.2 0 3.9.3 3.9 2 0 1.1-.4 2-1 2-.5 0-1 .9-1 2 0 1.7.7 2 4 2s4-.3 4-2c0-1.1-.4-2-1-2-.5 0-1-.9-1-2 0-1.7.7-2 3.8-2 3.6 0 3.9-.2 4.8-3.8l.9-3.7 7-.3c8.4-.4 9.5.6 9.5 8.6 0 9.4.5 9.2-19.1 9.2C7.8 66 6 67.1 6 81c0 8.1 1.9 11 7 11 1.6 0 3 .4 3 1 0 .5 2.3 1 5 1 2.8 0 5-.5 5-1 0-.6 7.3-1 20-1s20 .4 20 1c0 .5 2.3 1 5 1 2.8 0 5-.5 5-1 0-.6 1.4-1 3-1 1.7 0 3.9-.9 5-2 1.9-1.9 2-3.3 2-22V48h8V30h-4.5c-3.2 0-4.7-.5-5.2-1.5-.8-2.2-5.6-4.5-9.3-4.5-2.8 0-3-.2-3-4 0-3.3-.3-4-2-4s-2 .7-2 4-.3 4-2 4c-1.8 0-2-.7-2-8s-.2-8-2-8c-1.1 0-2-.5-2-1 0-.6-.9-1-2-1s-2 .4-2 1zm4 11c0 5.3-.2 6-2 6s-2-.7-2-6 .2-6 2-6 2 .7 2 6zM22 37c0 8.3.1 9 2 9s2-.7 2-9v-9h26c24.7 0 26.1.1 28 2 2 2 2 3.1 1.8 29.8l-.3 27.7h-71l-.3-6.7c-.2-5.7 0-7 1.8-8.8 1.9-1.9 3.2-2 19.1-2h17.1l2.9-2.9C53.8 64.4 54 63.6 54 57s-.2-7.4-2.9-10.1c-2.7-2.7-3.5-2.9-10.5-2.9-8.2 0-11.6 1.8-11.6 6 0 1.8-.7 2-6.4 2-7.4 0-7 .5-8.2-12.1-.6-7-.5-7.8 1.5-9.8C17 29 18.9 28 20 28c1.9 0 2 .7 2 9zm68 2c0 4.3-.3 5-2 5s-2-.7-2-5 .3-5 2-5 2 .7 2 5z"/><path d="M64 36c-1.1 1.1-2 2.9-2 4 0 2.6 3.4 6 6 6 1.1 0 2.9-.9 4-2s2-2.9 2-4-.9-2.9-2-4-2.9-2-4-2-2.9.9-4 2zm5.6 3.1c1 1.7-1.3 3.6-2.7 2.2-1.2-1.2-.4-3.3 1.1-3.3.5 0 1.2.5 1.6 1.1zm-6.5 16.3C54.4 60.2 58.1 74 68 74c5.1 0 10-4.9 10-9.9 0-7.5-8.3-12.4-14.9-8.7zM72 60c1.1 1.1 2 2.9 2 4 0 2.6-3.4 6-6 6-1.1 0-2.9-.9-4-2s-2-2.9-2-4 .9-2.9 2-4 2.9-2 4-2 2.9.9 4 2z"/></g></svg>