<svg xmlns="http://www.w3.org/2000/svg" xmlns:xlink="http://www.w3.org/1999/xlink"><symbol id="icon-cross" viewBox="0 0 12 12">
<path d="M10.8995 1L1.00008 10.8995M10.8995 10.8995L1 1" stroke="#F5F5F5"/>
</symbol><symbol id="icon-instagram" viewBox="0 0 25 25">
<path fill-rule="evenodd" clip-rule="evenodd" d="M7.8125 0H17.1875C21.5016 0 25 3.49844 25 7.8125V17.1875C25 21.5016 21.5016 25 17.1875 25H7.8125C3.49844 25 0 21.5016 0 17.1875V7.8125C0 3.49844 3.49844 0 7.8125 0ZM17.1875 22.6562C20.2031 22.6562 22.6562 20.2031 22.6562 17.1875V7.8125C22.6562 4.79688 20.2031 2.34375 17.1875 2.34375H7.8125C4.79688 2.34375 2.34375 4.79688 2.34375 7.8125V17.1875C2.34375 20.2031 4.79688 22.6562 7.8125 22.6562H17.1875Z" fill="#5E4338"/>
<path fill-rule="evenodd" clip-rule="evenodd" d="M6.25 12.5C6.25 9.04844 9.04844 6.25 12.5 6.25C15.9516 6.25 18.75 9.04844 18.75 12.5C18.75 15.9516 15.9516 18.75 12.5 18.75C9.04844 18.75 6.25 15.9516 6.25 12.5ZM8.59375 12.5C8.59375 14.6531 10.3469 16.4062 12.5 16.4062C14.6531 16.4062 16.4062 14.6531 16.4062 12.5C16.4062 10.3453 14.6531 8.59375 12.5 8.59375C10.3469 8.59375 8.59375 10.3453 8.59375 12.5Z" fill="#5E4338"/>
<path d="M19.2187 6.61411C19.6787 6.61411 20.0516 6.24125 20.0516 5.7813C20.0516 5.32135 19.6787 4.94849 19.2187 4.94849C18.7588 4.94849 18.3859 5.32135 18.3859 5.7813C18.3859 6.24125 18.7588 6.61411 19.2187 6.61411Z" fill="#5E4338"/>
</symbol><symbol id="icon-mail" viewBox="0 0 26 25">
<path d="M2.39773 6.83472L11.9739 15.0278C12.3602 15.3542 12.8773 15.3694 13.2773 15.0278L22.8523 6.83472V20.8333C22.8523 21.2111 22.7273 21.5569 22.517 21.8125C22.3068 22.0681 22.025 22.2222 21.7159 22.2222H3.53409C3.225 22.2222 2.94205 22.0694 2.73295 21.8125C2.52386 21.5556 2.39773 21.2111 2.39773 20.8333V6.83472ZM0.125 4.14305C0.125 4.15694 0.125 4.17083 0.125 4.18472V20.8333C0.125 21.9833 0.511364 23.0264 1.125 23.7778C1.73864 24.5292 2.59318 25 3.53409 25H21.7159C22.6568 25 23.5102 24.5278 24.125 23.7778C24.7398 23.0278 25.125 21.9833 25.125 20.8333V4.18333C25.125 4.16944 25.125 4.15556 25.125 4.14167C25.1193 3.00139 24.7352 1.96806 24.125 1.22222C23.5102 0.472222 22.6568 0 21.7159 0H3.53409C2.59318 0 1.73977 0.472222 1.125 1.22222C0.514773 1.96806 0.130682 3.00139 0.125 4.14305ZM22.7318 3.54722L12.625 12.1931L2.51818 3.54722C2.57273 3.41389 2.64545 3.29306 2.73182 3.1875C2.94205 2.93056 3.225 2.77778 3.53409 2.77778H21.7159C22.025 2.77778 22.308 2.93056 22.517 3.1875C22.6034 3.29306 22.6761 3.41528 22.7307 3.54722H22.7318Z" fill="#5E4338"/>
</symbol><symbol id="icon-vk" viewBox="0 0 25 25">
<rect x="1" y="1" width="23" height="23" rx="3" stroke="#5E4338" stroke-width="2"/>
<path d="M18.3482 14.5483C19.5548 15.7177 19.8061 16.2895 19.8468 16.3598C20.3449 17.2269 19.2945 17.2949 19.2945 17.2949L17.2819 17.3253C17.2819 17.3253 16.8472 17.4144 16.279 17.0043C15.5252 16.4653 14.4951 15.0592 13.9427 15.242C13.3813 15.4271 13.5602 16.9012 13.5602 16.9012C13.5602 16.9012 13.5647 17.0816 13.4379 17.2269C13.2975 17.3792 13.0259 17.3206 13.0259 17.3206H12.4463C12.4463 17.3206 10.298 17.33 8.54574 15.4224C6.63733 13.3438 5.04132 9.45601 5.04132 9.45601C5.04132 9.45601 4.94398 9.20995 5.04811 9.07871C5.1681 8.93108 5.49182 8.93342 5.49182 8.93342H7.64474C7.64474 8.93342 7.84622 8.96154 7.9911 9.07403C8.11335 9.16542 8.179 9.33884 8.179 9.33884C8.179 9.33884 8.43934 10.063 8.90117 10.8972C9.79991 12.5236 10.2187 12.8798 10.5243 12.704C10.9681 12.4486 10.8345 10.4051 10.8345 10.4051C10.8345 10.4051 10.8435 9.66223 10.6104 9.33181C10.4293 9.07403 10.0919 8.99904 9.94253 8.97795C9.82029 8.96389 10.0195 8.66861 10.2776 8.53738C10.6647 8.34053 11.3506 8.32647 12.1588 8.33584C12.7882 8.34287 13.0259 8.3335 13.0259 8.3335C13.7684 8.52097 13.5171 9.24744 13.5171 10.9816C13.5171 11.5393 13.4198 12.3221 13.8046 12.5798C13.9699 12.6947 14.563 12.7111 15.5704 10.9183C16.0504 10.0677 16.4284 9.26853 16.4284 9.26853C16.4284 9.26853 16.5099 9.08809 16.6299 9.0131C16.7567 8.93342 16.9242 8.93342 16.9242 8.93342L19.1903 8.94514C19.1903 8.94514 19.8717 8.85609 19.9804 9.17948C20.0959 9.51694 19.702 10.1075 18.7783 11.3987C17.257 13.5196 17.0872 13.3227 18.3482 14.5483Z" fill="#5E4338"/>
</symbol></svg>