<svg width="426" height="95" viewBox="0 0 426 95" fill="none" xmlns="http://www.w3.org/2000/svg">
<line y1="-0.5" x2="420.904" y2="-0.5" transform="matrix(-1 -0.000688308 0.00858671 -0.999963 421.277 3.81592)" stroke="#5E4338" stroke-dasharray="4 2"/>
<line y1="-0.5" x2="424.493" y2="-0.5" transform="matrix(-0.99998 -0.00634539 0.0080966 -0.999967 424.433 54.9458)" stroke="#FF6B35" stroke-dasharray="4 2"/>
<line y1="-0.5" x2="418.837" y2="-0.5" transform="matrix(-0.99998 -0.00631318 0.00860503 -0.999963 418.89 41.8716)" stroke="#FF6B35" stroke-dasharray="4 2"/>
<line y1="-0.5" x2="424.493" y2="-0.5" transform="matrix(-0.99998 -0.00634539 0.0080966 -0.999967 424.651 29.8979)" stroke="#F5F5F5" stroke-dasharray="4 2"/>
<line y1="-0.5" x2="418.326" y2="-0.5" transform="matrix(-0.999969 -0.00786791 0.00867044 -0.999962 419.099 17.8257)" stroke="#5E4338" stroke-dasharray="4 2"/>
<line y1="-0.5" x2="424.494" y2="-0.5" transform="matrix(-0.999983 -0.00574953 0.00821937 -0.999966 424.61 93.0227)" stroke="#5E4338" stroke-dasharray="4 2"/>
<line y1="-0.5" x2="420.384" y2="-0.5" transform="matrix(-0.999985 -0.00548648 0.00857025 -0.999963 420.615 79.9607)" stroke="#5E4338" stroke-dasharray="4 2"/>
<line y1="-0.5" x2="416.068" y2="-0.5" transform="matrix(-0.999985 -0.00545529 0.00856894 -0.999963 416.403 67.9016)" stroke="#5E4338" stroke-dasharray="4 2"/>
</svg>
