<svg width="124" height="28" viewBox="0 0 124 28" fill="none" xmlns="http://www.w3.org/2000/svg">
<line y1="-0.5" x2="122.806" y2="-0.5" transform="matrix(-0.999966 0.00819571 -0.000116399 -1 122.801 0)" stroke="#5E4338" stroke-dasharray="4 2"/>
<line y1="-0.5" x2="123.853" y2="-0.5" transform="matrix(-0.999997 0.00241287 -0.000595863 -1 123.852 15.2409)" stroke="#FF6B35" stroke-dasharray="4 2"/>
<line y1="-0.5" x2="122.203" y2="-0.5" transform="matrix(-0.999997 0.0024458 -9.84763e-05 -1 122.201 11.356)" stroke="#FF6B35" stroke-dasharray="4 2"/>
<line y1="-0.5" x2="123.853" y2="-0.5" transform="matrix(-0.999997 0.00241287 -0.000595863 -1 123.852 7.77002)" stroke="#F5F5F5" stroke-dasharray="4 2"/>
<line y1="-0.5" x2="122.054" y2="-0.5" transform="matrix(-1 0.000856454 -3.4487e-05 -1 122.201 4.18393)" stroke="#5E4338" stroke-dasharray="4 2"/>
<line y1="-0.5" x2="123.853" y2="-0.5" transform="matrix(-0.999995 0.00325663 -0.00044148 -1 124 26.5966)" stroke="#5E4338" stroke-dasharray="4 2"/>
<line y1="-0.5" x2="122.654" y2="-0.5" transform="matrix(-0.999995 0.0032909 -0.000132501 -1 122.801 22.7114)" stroke="#5E4338" stroke-dasharray="4 2"/>
<line y1="-0.5" x2="121.395" y2="-0.5" transform="matrix(-0.999994 0.00332278 -0.000133785 -1 121.542 19.1257)" stroke="#5E4338" stroke-dasharray="4 2"/>
</svg>
