<svg version="1.0" xmlns="http://www.w3.org/2000/svg" width="133.333" height="133.333" viewBox="0 0 100 100"><g fill="#5E4338"><path d="M0 38c0 26.3 0 27 2 27 1.8 0 2 .7 2 8v8h3c2.3 0 3.1.5 3.6 2.5.3 1.4 2 3.6 3.6 5 5.5 4.6 14.1 2.6 17.2-4l1.7-3.5h28.8l1.7 3.5c3.1 6.6 11.7 8.6 17.2 4 1.6-1.4 3.3-3.6 3.6-5 .6-2.2 1.1-2.4 7.9-2.7l7.2-.3-.4-13c-.3-12.5-.5-13.4-4.8-24.5-2.4-6.3-5.3-12.3-6.4-13.3-1.8-1.4-4.2-1.7-15.5-1.7H59V11H0v27zm55.9 8.5V79H33.1l-1.7-3.5c-3.1-6.6-11.7-8.6-17.2-4-1.6 1.4-3.3 3.6-3.6 5-.4 1.7-1.3 2.5-2.7 2.5-2 0-2.1-.4-1.7-8 .3-7.1.1-8-1.4-8C3.1 63 3 61.2 3 38.5V14h52.9v32.5zM76 39.1c0 5 .5 9.9 1 10.9.6 1.1 2.6 2.2 4.5 2.6 1.9.3 3.9 1.2 4.6 2 .7.8 3 1.4 5.5 1.4 5 0 6.4 2.6 1.8 3.2-5.7.7-5.9 8.4-.3 9.5 2.4.4 2.9 1 2.6 2.4-.3 1.1-.1 2.2.4 2.5.5.3.9 1.6.9 3 0 2.3-.3 2.4-6 2.4-5.5 0-6-.2-6.6-2.5-.3-1.4-2-3.6-3.6-5-5.5-4.6-14.1-2.6-17.2 4-.9 1.9-2.3 3.5-3.1 3.5-1.3 0-1.5-3.7-1.5-24.5V30h17v9.1zm10.3-7.3c1.8 1.9 8.7 18.7 8.7 20.9 0 1.9-6.7 1.6-7.8-.3-.5-.9-2.4-1.9-4.3-2.3l-3.4-.7-.3-9.7-.3-9.7h2.9c1.6 0 3.6.8 4.5 1.8zM96 63.5c0 1.8-.5 2.5-1.9 2.5-2.6 0-3.6-1.7-2.1-3.5 1.9-2.3 4-1.8 4 1zM27.8 74.6c6.2 7-2.2 17.3-10.6 13-3.3-1.7-4.2-3.4-4.2-8 0-8 9.4-11.2 14.8-5zm50.1-2.1c3.2 1.6 4.1 3.3 4.1 7.5s-.9 5.9-4.2 7.6c-7.9 4.1-16.3-5.2-11.2-12.4 2.8-4.1 6.9-5 11.3-2.7z"/><path d="M5 29c0 .5.5 1 1 1 .6 0 1-.5 1-1 0-.6-.4-1-1-1-.5 0-1 .4-1 1zm5 0c0 .5.5 1 1 1 .6 0 1-.5 1-1 0-.6-.4-1-1-1-.5 0-1 .4-1 1zm5 0c0 .5.5 1 1 1 .6 0 1-.5 1-1 0-.6-.4-1-1-1-.5 0-1 .4-1 1zm5 0c0 .5.5 1 1 1 .6 0 1-.5 1-1 0-.6-.4-1-1-1-.5 0-1 .4-1 1zm5 0c0 .5.5 1 1 1 .6 0 1-.5 1-1 0-.6-.4-1-1-1-.5 0-1 .4-1 1zm5 0c0 .5.5 1 1 1 .6 0 1-.5 1-1 0-.6-.4-1-1-1-.5 0-1 .4-1 1zm5 0c0 .5.5 1 1 1 .6 0 1-.5 1-1 0-.6-.4-1-1-1-.5 0-1 .4-1 1zm5 0c0 .5.5 1 1 1 .6 0 1-.5 1-1 0-.6-.4-1-1-1-.5 0-1 .4-1 1zm5 0c0 .5.5 1 1 1 .6 0 1-.5 1-1 0-.6-.4-1-1-1-.5 0-1 .4-1 1zm5 0c0 .5.5 1 1 1 .6 0 1-.5 1-1 0-.6-.4-1-1-1-.5 0-1 .4-1 1zM5 49c0 .5.5 1 1 1 .6 0 1-.5 1-1 0-.6-.4-1-1-1-.5 0-1 .4-1 1zm5 0c0 .5.5 1 1 1 .6 0 1-.5 1-1 0-.6-.4-1-1-1-.5 0-1 .4-1 1zm5 0c0 .5.5 1 1 1 .6 0 1-.5 1-1 0-.6-.4-1-1-1-.5 0-1 .4-1 1zm5 0c0 .5.5 1 1 1 .6 0 1-.5 1-1 0-.6-.4-1-1-1-.5 0-1 .4-1 1zm5 0c0 .5.5 1 1 1 .6 0 1-.5 1-1 0-.6-.4-1-1-1-.5 0-1 .4-1 1zm5 0c0 .5.5 1 1 1 .6 0 1-.5 1-1 0-.6-.4-1-1-1-.5 0-1 .4-1 1zm5 0c0 .5.5 1 1 1 .6 0 1-.5 1-1 0-.6-.4-1-1-1-.5 0-1 .4-1 1zm5 0c0 .5.5 1 1 1 .6 0 1-.5 1-1 0-.6-.4-1-1-1-.5 0-1 .4-1 1zm5 0c0 .5.5 1 1 1 .6 0 1-.5 1-1 0-.6-.4-1-1-1-.5 0-1 .4-1 1zm5 0c0 .5.5 1 1 1 .6 0 1-.5 1-1 0-.6-.4-1-1-1-.5 0-1 .4-1 1zM10 64c0 .5.5 1 1 1 .6 0 1-.5 1-1 0-.6-.4-1-1-1-.5 0-1 .4-1 1zm5 0c0 .5.5 1 1 1 .6 0 1-.5 1-1 0-.6-.4-1-1-1-.5 0-1 .4-1 1zm5 0c0 .5.5 1 1 1 .6 0 1-.5 1-1 0-.6-.4-1-1-1-.5 0-1 .4-1 1zm5 0c0 .5.5 1 1 1 .6 0 1-.5 1-1 0-.6-.4-1-1-1-.5 0-1 .4-1 1zm5 0c0 .5.5 1 1 1 .6 0 1-.5 1-1 0-.6-.4-1-1-1-.5 0-1 .4-1 1zm5 0c0 .5.5 1 1 1 .6 0 1-.5 1-1 0-.6-.4-1-1-1-.5 0-1 .4-1 1zm5 0c0 .5.5 1 1 1 .6 0 1-.5 1-1 0-.6-.4-1-1-1-.5 0-1 .4-1 1zm5 0c0 .5.5 1 1 1 .6 0 1-.5 1-1 0-.6-.4-1-1-1-.5 0-1 .4-1 1zm5 0c0 .5.5 1 1 1 .6 0 1-.5 1-1 0-.6-.4-1-1-1-.5 0-1 .4-1 1zm12.9-27.3c-1.6 4.2-.6 13.3 1.6 14.9 2.4 1.7 3.6 1.7 6 0 2.2-1.6 3.2-10.7 1.6-14.9-.9-2.2-1.7-2.7-4.6-2.7-2.9 0-3.7.5-4.6 2.7zm6.9 6.6c.3 6.6.3 6.7-2.3 6.7-2.4 0-2.5-.2-2.5-6.3 0-6.8.5-7.9 3-7.5 1.1.3 1.6 1.9 1.8 7.1zm15.7 28.6c-.3.5-.1 1.2.5 1.6.5.3 1-.1 1-.9 0-1.8-.6-2.1-1.5-.7zm5 0c-.3.5-.1 1.2.5 1.6.5.3 1-.1 1-.9 0-1.8-.6-2.1-1.5-.7zm-71.3 5.3c-3 3 0 7.8 3.7 5.8 3.2-1.7 2.1-7-1.4-7-.6 0-1.6.5-2.3 1.2zM22 80c0 .5-.4 1-1 1-.5 0-1-.5-1-1 0-.6.5-1 1-1 .6 0 1 .4 1 1zm49.2-2.8c-3 3 1.1 8.5 4.4 5.7 2.5-2.1 1.1-6.9-2.1-6.9-.6 0-1.6.5-2.3 1.2zM75 80c0 .5-.4 1-1 1-.5 0-1-.5-1-1 0-.6.5-1 1-1 .6 0 1 .4 1 1z"/></g></svg>