<?xml version="1.0" standalone="no"?>
<!DOCTYPE svg PUBLIC "-//W3C//DTD SVG 20010904//EN"
 "http://www.w3.org/TR/2001/REC-SVG-20010904/DTD/svg10.dtd">
<svg version="1.0" xmlns="http://www.w3.org/2000/svg"
 width="100.000000pt" height="100.000000pt" viewBox="0 0 100.000000 100.000000"
 preserveAspectRatio="xMidYMid meet">

<g transform="translate(0.000000,100.000000) scale(0.100000,-0.100000)"
fill="#5E4338" stroke="none">
<path d="M0 620 c0 -263 0 -270 20 -270 18 0 20 -7 20 -80 l0 -80 30 0 c23 0
31 -5 36 -25 3 -14 20 -36 36 -50 55 -46 141 -26 172 40 l17 35 144 0 144 0
17 -35 c31 -66 117 -86 172 -40 16 14 33 36 36 50 6 22 11 24 79 27 l72 3 -4
130 c-3 125 -5 134 -48 245 -24 63 -53 123 -64 133 -18 14 -42 17 -155 17
l-134 0 0 85 0 85 -295 0 -295 0 0 -270z m559 -85 l0 -325 -114 0 -114 0 -17
35 c-31 66 -117 86 -172 40 -16 -14 -33 -36 -36 -50 -4 -17 -13 -25 -27 -25
-20 0 -21 4 -17 80 3 71 1 80 -14 80 -17 0 -18 18 -18 245 l0 245 264 0 265 0
0 -325z m201 74 c0 -50 5 -99 10 -109 6 -11 26 -22 45 -26 19 -3 39 -12 46
-20 7 -8 30 -14 55 -14 50 0 64 -26 18 -32 -57 -7 -59 -84 -3 -95 24 -4 29
-10 26 -24 -3 -11 -1 -22 4 -25 5 -3 9 -16 9 -30 0 -23 -3 -24 -60 -24 -55 0
-60 2 -66 25 -3 14 -20 36 -36 50 -55 46 -141 26 -172 -40 -9 -19 -23 -35 -31
-35 -13 0 -15 37 -15 245 l0 245 85 0 85 0 0 -91z m103 73 c18 -19 87 -187 87
-209 0 -19 -67 -16 -78 3 -5 9 -24 19 -43 23 l-34 7 -3 97 -3 97 29 0 c16 0
36 -8 45 -18z m97 -317 c0 -18 -5 -25 -19 -25 -26 0 -36 17 -21 35 19 23 40
18 40 -10z m-682 -111 c62 -70 -22 -173 -106 -130 -33 17 -42 34 -42 80 0 80
94 112 148 50z m501 21 c32 -16 41 -33 41 -75 0 -42 -9 -59 -42 -76 -79 -41
-163 52 -112 124 28 41 69 50 113 27z"/>
<path d="M50 710 c0 -5 5 -10 10 -10 6 0 10 5 10 10 0 6 -4 10 -10 10 -5 0
-10 -4 -10 -10z"/>
<path d="M100 710 c0 -5 5 -10 10 -10 6 0 10 5 10 10 0 6 -4 10 -10 10 -5 0
-10 -4 -10 -10z"/>
<path d="M150 710 c0 -5 5 -10 10 -10 6 0 10 5 10 10 0 6 -4 10 -10 10 -5 0
-10 -4 -10 -10z"/>
<path d="M200 710 c0 -5 5 -10 10 -10 6 0 10 5 10 10 0 6 -4 10 -10 10 -5 0
-10 -4 -10 -10z"/>
<path d="M250 710 c0 -5 5 -10 10 -10 6 0 10 5 10 10 0 6 -4 10 -10 10 -5 0
-10 -4 -10 -10z"/>
<path d="M300 710 c0 -5 5 -10 10 -10 6 0 10 5 10 10 0 6 -4 10 -10 10 -5 0
-10 -4 -10 -10z"/>
<path d="M350 710 c0 -5 5 -10 10 -10 6 0 10 5 10 10 0 6 -4 10 -10 10 -5 0
-10 -4 -10 -10z"/>
<path d="M400 710 c0 -5 5 -10 10 -10 6 0 10 5 10 10 0 6 -4 10 -10 10 -5 0
-10 -4 -10 -10z"/>
<path d="M450 710 c0 -5 5 -10 10 -10 6 0 10 5 10 10 0 6 -4 10 -10 10 -5 0
-10 -4 -10 -10z"/>
<path d="M500 710 c0 -5 5 -10 10 -10 6 0 10 5 10 10 0 6 -4 10 -10 10 -5 0
-10 -4 -10 -10z"/>
<path d="M50 510 c0 -5 5 -10 10 -10 6 0 10 5 10 10 0 6 -4 10 -10 10 -5 0
-10 -4 -10 -10z"/>
<path d="M100 510 c0 -5 5 -10 10 -10 6 0 10 5 10 10 0 6 -4 10 -10 10 -5 0
-10 -4 -10 -10z"/>
<path d="M150 510 c0 -5 5 -10 10 -10 6 0 10 5 10 10 0 6 -4 10 -10 10 -5 0
-10 -4 -10 -10z"/>
<path d="M200 510 c0 -5 5 -10 10 -10 6 0 10 5 10 10 0 6 -4 10 -10 10 -5 0
-10 -4 -10 -10z"/>
<path d="M250 510 c0 -5 5 -10 10 -10 6 0 10 5 10 10 0 6 -4 10 -10 10 -5 0
-10 -4 -10 -10z"/>
<path d="M300 510 c0 -5 5 -10 10 -10 6 0 10 5 10 10 0 6 -4 10 -10 10 -5 0
-10 -4 -10 -10z"/>
<path d="M350 510 c0 -5 5 -10 10 -10 6 0 10 5 10 10 0 6 -4 10 -10 10 -5 0
-10 -4 -10 -10z"/>
<path d="M400 510 c0 -5 5 -10 10 -10 6 0 10 5 10 10 0 6 -4 10 -10 10 -5 0
-10 -4 -10 -10z"/>
<path d="M450 510 c0 -5 5 -10 10 -10 6 0 10 5 10 10 0 6 -4 10 -10 10 -5 0
-10 -4 -10 -10z"/>
<path d="M500 510 c0 -5 5 -10 10 -10 6 0 10 5 10 10 0 6 -4 10 -10 10 -5 0
-10 -4 -10 -10z"/>
<path d="M100 360 c0 -5 5 -10 10 -10 6 0 10 5 10 10 0 6 -4 10 -10 10 -5 0
-10 -4 -10 -10z"/>
<path d="M150 360 c0 -5 5 -10 10 -10 6 0 10 5 10 10 0 6 -4 10 -10 10 -5 0
-10 -4 -10 -10z"/>
<path d="M200 360 c0 -5 5 -10 10 -10 6 0 10 5 10 10 0 6 -4 10 -10 10 -5 0
-10 -4 -10 -10z"/>
<path d="M250 360 c0 -5 5 -10 10 -10 6 0 10 5 10 10 0 6 -4 10 -10 10 -5 0
-10 -4 -10 -10z"/>
<path d="M300 360 c0 -5 5 -10 10 -10 6 0 10 5 10 10 0 6 -4 10 -10 10 -5 0
-10 -4 -10 -10z"/>
<path d="M350 360 c0 -5 5 -10 10 -10 6 0 10 5 10 10 0 6 -4 10 -10 10 -5 0
-10 -4 -10 -10z"/>
<path d="M400 360 c0 -5 5 -10 10 -10 6 0 10 5 10 10 0 6 -4 10 -10 10 -5 0
-10 -4 -10 -10z"/>
<path d="M450 360 c0 -5 5 -10 10 -10 6 0 10 5 10 10 0 6 -4 10 -10 10 -5 0
-10 -4 -10 -10z"/>
<path d="M500 360 c0 -5 5 -10 10 -10 6 0 10 5 10 10 0 6 -4 10 -10 10 -5 0
-10 -4 -10 -10z"/>
<path d="M629 633 c-16 -42 -6 -133 16 -149 24 -17 36 -17 60 0 22 16 32 107
16 149 -9 22 -17 27 -46 27 -29 0 -37 -5 -46 -27z m69 -66 c3 -66 3 -67 -23
-67 -24 0 -25 2 -25 63 0 68 5 79 30 75 11 -3 16 -19 18 -71z"/>
<path d="M855 281 c-3 -5 -1 -12 5 -16 5 -3 10 1 10 9 0 18 -6 21 -15 7z"/>
<path d="M905 281 c-3 -5 -1 -12 5 -16 5 -3 10 1 10 9 0 18 -6 21 -15 7z"/>
<path d="M192 228 c-30 -30 0 -78 37 -58 32 17 21 70 -14 70 -6 0 -16 -5 -23
-12z m28 -28 c0 -5 -4 -10 -10 -10 -5 0 -10 5 -10 10 0 6 5 10 10 10 6 0 10
-4 10 -10z"/>
<path d="M712 228 c-30 -30 11 -85 44 -57 25 21 11 69 -21 69 -6 0 -16 -5 -23
-12z m38 -28 c0 -5 -4 -10 -10 -10 -5 0 -10 5 -10 10 0 6 5 10 10 10 6 0 10
-4 10 -10z"/>
</g>
</svg>
