<?xml version="1.0" standalone="no"?>
<!DOCTYPE svg PUBLIC "-//W3C//DTD SVG 20010904//EN"
  "http://www.w3.org/TR/2001/REC-SVG-20010904/DTD/svg10.dtd">
<svg version="1.0" xmlns="http://www.w3.org/2000/svg"
  width="100.000000pt" height="100.000000pt" viewBox="0 0 100.000000 100.000000"
  preserveAspectRatio="xMidYMid meet">

<g transform="translate(0.000000,100.000000) scale(0.100000,-0.100000)"
fill="#5E4338" stroke="none">
<path d="M783 970 c-62 -38 -87 -108 -59 -173 l15 -37 -63 0 c-58 0 -64 -2
-97 -36 -67 -70 -97 -79 -254 -79 -126 0 -144 2 -182 22 -23 13 -44 27 -48 33
-4 7 51 10 164 10 171 0 196 5 171 35 -10 12 -45 15 -177 15 -108 0 -162 3
-158 10 4 6 25 20 48 32 35 18 63 23 160 26 103 4 126 1 178 -17 32 -12 64
-19 69 -16 22 14 7 34 -41 55 -47 20 -65 21 -203 18 -120 -3 -158 -7 -183 -21
-45 -24 -113 -91 -113 -110 0 -28 59 -85 118 -114 54 -27 64 -28 197 -28 159
0 198 12 269 78 35 33 44 37 92 37 30 0 54 -2 54 -4 0 -2 -7 -17 -15 -32 -27
-52 -12 -117 38 -163 35 -32 111 -40 156 -17 66 35 91 128 51 193 -25 42 -56
61 -115 72 -82 15 -115 73 -80 141 28 55 117 56 153 2 10 -15 15 -42 14 -68
-1 -24 4 -46 10 -50 18 -11 38 26 38 69 0 105 -118 172 -207 117z m110 -271
c100 -46 35 -203 -69 -169 -69 23 -86 99 -35 151 31 31 64 36 104 18z"/>
<path d="M491 746 c-9 -10 -8 -16 4 -26 19 -16 41 1 32 24 -8 20 -21 20 -36 2z"/>
<path d="M217 456 c-26 -7 -67 -27 -90 -44 l-42 -30 -3 -136 -3 -136 -34 0
c-28 0 -35 -4 -35 -20 0 -18 7 -20 54 -20 40 0 55 4 60 16 3 9 6 73 6 144 l0
129 28 19 c41 29 100 45 146 40 22 -3 95 -30 161 -60 114 -51 120 -56 120 -84
0 -42 -27 -42 -124 1 -82 36 -111 39 -111 11 0 -14 173 -96 205 -96 10 0 94
32 187 72 131 55 174 69 186 61 22 -13 27 -47 10 -60 -29 -23 -478 -203 -505
-203 -17 0 -78 23 -136 50 -115 54 -137 59 -137 32 0 -13 31 -33 111 -72 159
-79 155 -79 458 50 225 96 245 107 257 136 26 63 -28 134 -91 118 -17 -4 -33
1 -51 15 -35 27 -50 26 -123 -5 -44 -19 -61 -32 -61 -45 0 -24 23 -24 79 1 45
21 81 26 81 12 0 -5 -37 -24 -82 -43 -45 -19 -85 -35 -89 -37 -3 -1 -9 10 -12
26 -7 35 -22 45 -167 109 -130 57 -184 68 -253 49z"/>
</g>
</svg>
