<?xml version="1.0" standalone="no"?>
<!DOCTYPE svg PUBLIC "-//W3C//DTD SVG 20010904//EN"
 "http://www.w3.org/TR/2001/REC-SVG-20010904/DTD/svg10.dtd">
<svg version="1.0" xmlns="http://www.w3.org/2000/svg"
 viewBox="0 0 100.000000 100.000000"
 preserveAspectRatio="xMidYMid meet">

<g transform="translate(0.000000,100.000000) scale(0.100000,-0.100000)"
stroke="none">
<path d="M426 909 c-166 -27 -309 -175 -337 -348 -48 -304 267 -561 554 -452
19 7 27 18 27 35 0 40 -22 50 -81 36 -70 -17 -173 -8 -232 20 -61 29 -127 95
-158 157 -20 40 -24 63 -24 143 0 112 20 164 91 234 70 71 122 91 234 91 112
0 164 -20 234 -91 63 -63 88 -123 94 -222 4 -76 3 -85 -18 -107 -31 -33 -88
-34 -118 -2 -20 21 -22 34 -22 149 0 102 -3 130 -16 142 -20 20 -33 20 -55 0
-16 -15 -22 -15 -63 1 -82 31 -165 -1 -214 -83 -37 -64 -38 -157 -3 -219 29
-50 81 -89 134 -98 44 -8 114 14 142 45 17 19 18 19 47 -5 16 -13 47 -30 68
-36 82 -25 176 33 200 122 17 59 1 178 -33 253 -55 119 -181 215 -312 236 -67
11 -70 11 -139 -1z m104 -302 c67 -52 67 -162 0 -214 -19 -15 -75 -17 -101 -3
-63 34 -64 183 -2 219 25 14 85 13 103 -2z"/>
</g>
</svg>
