<svg width="26" height="25" viewBox="0 0 26 25" fill="none" xmlns="http://www.w3.org/2000/svg">
<path d="M2.39773 6.83472L11.9739 15.0278C12.3602 15.3542 12.8773 15.3694 13.2773 15.0278L22.8523 6.83472V20.8333C22.8523 21.2111 22.7273 21.5569 22.517 21.8125C22.3068 22.0681 22.025 22.2222 21.7159 22.2222H3.53409C3.225 22.2222 2.94205 22.0694 2.73295 21.8125C2.52386 21.5556 2.39773 21.2111 2.39773 20.8333V6.83472ZM0.125 4.14305C0.125 4.15694 0.125 4.17083 0.125 4.18472V20.8333C0.125 21.9833 0.511364 23.0264 1.125 23.7778C1.73864 24.5292 2.59318 25 3.53409 25H21.7159C22.6568 25 23.5102 24.5278 24.125 23.7778C24.7398 23.0278 25.125 21.9833 25.125 20.8333V4.18333C25.125 4.16944 25.125 4.15556 25.125 4.14167C25.1193 3.00139 24.7352 1.96806 24.125 1.22222C23.5102 0.472222 22.6568 0 21.7159 0H3.53409C2.59318 0 1.73977 0.472222 1.125 1.22222C0.514773 1.96806 0.130682 3.00139 0.125 4.14305ZM22.7318 3.54722L12.625 12.1931L2.51818 3.54722C2.57273 3.41389 2.64545 3.29306 2.73182 3.1875C2.94205 2.93056 3.225 2.77778 3.53409 2.77778H21.7159C22.025 2.77778 22.308 2.93056 22.517 3.1875C22.6034 3.29306 22.6761 3.41528 22.7307 3.54722H22.7318Z" fill="#5E4338"/>
</svg>
