<svg width="108" height="108" viewBox="0 0 108 108" fill="none" xmlns="http://www.w3.org/2000/svg">
<g filter="url(#filter0_d)">
<circle cx="54" cy="50" r="50" fill="#F5F5F5"/>
<circle cx="54" cy="50" r="49.5" stroke="#5E4338"/>
</g>
<path d="M58.1718 83.9903C59.5252 75.701 59.1917 67.896 59.6065 59.6017C60.0601 50.5294 67.2974 53.3249 71.0037 58.8844C74.3259 63.8677 78.2266 62.6033 84.3139 62.471C94.9903 62.2389 95.4721 59.1868 95.4721 50.2767C95.4721 46.2152 92.8383 41.0205 91.487 36.9665C90.5989 34.3023 88.5136 24.7879 86.147 23.7361C77.1265 19.727 68.0455 16.563 58.1718 16.563C53.6182 16.563 47.555 18.5238 43.1083 19.5119C38.5968 20.5145 30.3599 19.7528 26.6101 22.6203C21.8609 26.252 23.7408 35.6359 23.7408 40.9516C23.7408 43.3689 24.0592 45.894 22.9438 48.1247C21.0745 51.8634 16.0816 51.7322 14.0173 55.2978C9.67107 62.8049 21.3621 60.3101 24.5379 61.7537C29.0783 63.8175 34.8922 65.7913 39.5217 63.5868C41.7214 62.5393 55.3026 56.5531 55.3026 61.7537C55.3026 66.7897 56.7372 70.26 56.7372 75.3826" stroke="#5E4338" stroke-width="3" stroke-linecap="round" stroke-linejoin="round"/>
<path d="M33.7832 76.8174C33.9261 82.5325 33.7021 83.7951 38.0871 85.7439C40.6124 86.8663 42.0192 84.6698 43.8256 87.1786C47.2813 91.9782 47.5178 90.6829 52.4333 88.6132C55.4208 87.3553 54.5602 92.5983 57.4545 92.5983C65.0433 92.5983 70.1995 96.3059 73.3151 88.2944C75.6186 82.3711 79.1224 85.7871 83.198 83.1935C86.0774 81.3612 86.8767 73.9979 88.2989 79.6866" stroke="#5E4338" stroke-width="3" stroke-linecap="round" stroke-linejoin="round"/>
<defs>
<filter id="filter0_d" x="0" y="0" width="108" height="108" filterUnits="userSpaceOnUse" color-interpolation-filters="sRGB">
<feFlood flood-opacity="0" result="BackgroundImageFix"/>
<feColorMatrix in="SourceAlpha" type="matrix" values="0 0 0 0 0 0 0 0 0 0 0 0 0 0 0 0 0 0 127 0"/>
<feOffset dy="4"/>
<feGaussianBlur stdDeviation="2"/>
<feColorMatrix type="matrix" values="0 0 0 0 0 0 0 0 0 0 0 0 0 0 0 0 0 0 0.25 0"/>
<feBlend mode="normal" in2="BackgroundImageFix" result="effect1_dropShadow"/>
<feBlend mode="normal" in="SourceGraphic" in2="effect1_dropShadow" result="shape"/>
</filter>
</defs>
</svg>
