<svg version="1.0" xmlns="http://www.w3.org/2000/svg" width="133.333" height="133.333" viewBox="0 0 100 100"><g fill="#5E4338"><path d="M14 41.2v27.5l8.8.6c8.8.6 17.8 3.1 23.9 6.7 3.3 1.9 3.3 1.9 6.6 0 6.1-3.6 15.1-6.1 24-6.7l8.7-.6v-55l-8.5.7c-9.5.8-18.2 2.8-23.7 5.5-3.7 1.8-3.9 1.8-7.5 0-5.6-2.7-14.3-4.7-23.8-5.5l-8.5-.7v27.5zm10.8-11c.3-5.7 2.2-5.4 2.2.4 0 5.7 2 4.9 2.1-.9l.1-4.2.9 4c1.3 6.7 1.1 9.3-1 10-1.8.5-1.9 1.4-1.4 10.6.6 9.5.5 10.1-1.3 9.7-1.7-.3-1.9-1.1-1.5-10.1.3-8.9.2-10-1.7-11.2-1.6-1.2-1.9-2.3-1.5-6.2.7-7.3 1.6-8.4 2.3-2.8l.7 5 .1-4.3zM77 28.9c0 1.5-1 2.1-4.2 2.6-2.4.4-6.5 1.6-9.3 2.6-2.7 1.1-5.1 1.9-5.3 1.9-.2 0-.2-1.2 0-2.7.3-2.4 1.1-3 5.8-4.5 3-.9 7.2-1.7 9.3-1.7 3-.1 3.7.3 3.7 1.8zM42 45c0 14.8-.2 17-1.6 17-1.3 0-1.5-1.2-1.3-7 .2-5.4-.2-7.4-1.5-8.8-1.4-1.7-1.5-2.6-.5-7.3 1.1-5.2 3.4-10.9 4.4-10.9.3 0 .5 7.6.5 17zm31-3.6c0 2-.7 2.6-4.7 3.5-2.5.7-5.9 1.9-7.5 2.7C58 49 58 49 58 46.2c0-2.7.5-3.1 5.3-4.5 2.8-.9 6.1-1.8 7.2-2 1.1-.3 2.1-.5 2.3-.6.1 0 .2 1 .2 2.3zm4 12.5c0 1.5-1 2.1-4.2 2.6-2.4.4-6.5 1.6-9.3 2.6-2.7 1.1-5.1 1.9-5.2 1.9-.2 0-.3-1.1-.3-2.4 0-2 .8-2.7 4.3-4 6.7-2.4 7-2.4 11-2.5 3-.1 3.7.3 3.7 1.8z"/><path d="M6.8 25.1C5.1 26 5 28.5 5 55.2c0 27.2.1 29 1.7 28.3 8.4-3.4 22.1-3.6 33.8-.4 9.8 2.6 9.2 2.6 19 0 11.7-3.2 25.4-3 33.8.4 1.6.7 1.7-1.1 1.7-28.4 0-27.7-.1-29.1-1.9-30.1-1.1-.5-2.4-1-3-1-.8 0-1.1 8-1.1 25.3v25.2l-8.2-.4c-9.2-.4-16.5.9-25.2 4.6l-5.9 2.4-5.6-2.4c-8.1-3.6-15.6-5-24.9-4.6l-8.2.4V49.3c0-26.5 0-26.7-4.2-24.2z"/></g></svg>