<?xml version="1.0" standalone="no"?>
<!DOCTYPE svg PUBLIC "-//W3C//DTD SVG 20010904//EN"
 "http://www.w3.org/TR/2001/REC-SVG-20010904/DTD/svg10.dtd">
<svg version="1.0" xmlns="http://www.w3.org/2000/svg"
 width="100.000000pt" height="100.000000pt" viewBox="0 0 100.000000 100.000000"
 preserveAspectRatio="xMidYMid meet">

<g transform="translate(0.000000,100.000000) scale(0.100000,-0.100000)"
fill="#5E4338" stroke="none">
<path d="M560 930 c0 -5 -9 -10 -20 -10 -18 0 -20 -7 -20 -80 l0 -80 -110 0
c-103 0 -110 1 -110 20 0 13 -7 20 -20 20 -13 0 -20 -7 -20 -20 0 -17 -7 -20
-40 -20 -92 0 -127 -48 -116 -158 17 -170 14 -162 57 -162 32 0 39 -3 39 -20
0 -11 -4 -20 -10 -20 -5 0 -10 -9 -10 -20 0 -17 7 -20 40 -20 33 0 40 3 40 20
0 11 -4 20 -10 20 -5 0 -10 9 -10 20 0 17 7 20 38 20 36 0 39 2 48 38 l9 37
70 3 c84 4 95 -6 95 -86 0 -94 5 -92 -191 -92 -231 0 -249 -11 -249 -150 0
-81 19 -110 70 -110 16 0 30 -4 30 -10 0 -5 23 -10 50 -10 28 0 50 5 50 10 0
6 73 10 200 10 127 0 200 -4 200 -10 0 -5 23 -10 50 -10 28 0 50 5 50 10 0 6
14 10 30 10 17 0 39 9 50 20 19 19 20 33 20 220 l0 200 40 0 40 0 0 90 0 90
-45 0 c-32 0 -47 5 -52 15 -8 22 -56 45 -93 45 -28 0 -30 2 -30 40 0 33 -3 40
-20 40 -17 0 -20 -7 -20 -40 0 -33 -3 -40 -20 -40 -18 0 -20 7 -20 80 0 73 -2
80 -20 80 -11 0 -20 5 -20 10 0 6 -9 10 -20 10 -11 0 -20 -4 -20 -10z m40
-110 c0 -53 -2 -60 -20 -60 -18 0 -20 7 -20 60 0 53 2 60 20 60 18 0 20 -7 20
-60z m-380 -190 c0 -83 1 -90 20 -90 19 0 20 7 20 90 l0 90 260 0 c247 0 261
-1 280 -20 20 -20 20 -31 18 -298 l-3 -277 -355 0 -355 0 -3 67 c-2 57 0 70
18 88 19 19 32 20 191 20 l171 0 29 29 c27 27 29 35 29 101 0 66 -2 74 -29
101 -27 27 -35 29 -105 29 -82 0 -116 -18 -116 -60 0 -18 -7 -20 -64 -20 -74
0 -70 -5 -82 121 -6 70 -5 78 15 98 11 11 30 21 41 21 19 0 20 -7 20 -90z
m680 -20 c0 -43 -3 -50 -20 -50 -17 0 -20 7 -20 50 0 43 3 50 20 50 17 0 20
-7 20 -50z"/>
<path d="M640 640 c-11 -11 -20 -29 -20 -40 0 -26 34 -60 60 -60 11 0 29 9 40
20 11 11 20 29 20 40 0 11 -9 29 -20 40 -11 11 -29 20 -40 20 -11 0 -29 -9
-40 -20z m56 -31 c10 -17 -13 -36 -27 -22 -12 12 -4 33 11 33 5 0 12 -5 16
-11z"/>
<path d="M631 446 c-87 -48 -50 -186 49 -186 51 0 100 49 100 99 0 75 -83 124
-149 87z m89 -46 c11 -11 20 -29 20 -40 0 -26 -34 -60 -60 -60 -11 0 -29 9
-40 20 -11 11 -20 29 -20 40 0 11 9 29 20 40 11 11 29 20 40 20 11 0 29 -9 40
-20z"/>
</g>
</svg>
