<svg width="231" height="28" fill="none" xmlns="http://www.w3.org/2000/svg"><path transform="matrix(1 0 .00248 1 227.776 .32)" stroke="#F5F5F5" stroke-dasharray="4 2" d="M0-.5h227.777"/><path transform="matrix(-1 0 .0002 -1 229.714 15.39)" stroke="#FF6B35" stroke-dasharray="4 2" d="M0-.5h229.725"/><path transform="rotate(179.919 113.328 5.753) skewX(-.065)" stroke="#FF6B35" stroke-dasharray="4 2" d="M0-.5h226.664"/><path transform="matrix(-1 0 .0002 -1 229.72 7.92)" stroke="#F5F5F5" stroke-dasharray="4 2" d="M0-.5h229.725"/><path transform="matrix(-1 0 .0004 -1 226.662 4.236)" stroke="#F5F5F5" stroke-dasharray="4 2" d="M0-.5h226.388"/><path transform="rotate(180 114.994 13.353) skewX(.032)" stroke="#F5F5F5" stroke-dasharray="4 2" d="M0-.5h229.725"/><path transform="matrix(1 0 .00154 1 227.756 22.912)" stroke="#F5F5F5" stroke-dasharray="4 2" d="M0-.5h227.501"/><path transform="matrix(1 0 .00155 1 225.422 19.328)" stroke="#F5F5F5" stroke-dasharray="4 2" d="M0-.5h225.165"/></svg>