<?xml version="1.0" standalone="no"?>
<!DOCTYPE svg PUBLIC "-//W3C//DTD SVG 20010904//EN"
 "http://www.w3.org/TR/2001/REC-SVG-20010904/DTD/svg10.dtd">
<svg version="1.0" xmlns="http://www.w3.org/2000/svg"
 width="322.000000pt" height="322.000000pt" viewBox="0 0 322.000000 322.000000"
 preserveAspectRatio="xMidYMid meet">
<metadata>
Created by potrace 1.14, written by Peter Selinger 2001-2017
</metadata>
<g transform="translate(0.000000,322.000000) scale(0.100000,-0.100000)"
fill="#000000" stroke="none">
<path d="M654 3099 c-2 -4 -6 -28 -8 -53 -2 -25 -7 -50 -11 -55 -3 -6 -1 -11
5 -11 6 0 8 -5 4 -12 -4 -6 -8 -36 -10 -67 -13 -249 -27 -632 -28 -803 -1 -60
-3 -108 -6 -108 -3 0 -5 -16 -5 -35 0 -19 4 -35 8 -35 5 0 5 -5 1 -12 -4 -6
-9 -54 -11 -107 -6 -179 -21 -548 -29 -716 -6 -135 -6 -127 -2 -178 2 -20 1
-37 -2 -37 -8 0 -5 -148 3 -156 4 -4 2 -13 -4 -21 -8 -9 -8 -17 0 -26 6 -8 8
-17 4 -21 -4 -3 -8 -99 -9 -212 -1 -113 0 -203 3 -200 3 3 11 -2 18 -10 6 -9
20 -17 31 -18 10 -1 42 -6 69 -11 28 -4 60 -9 72 -9 12 -1 25 -5 29 -9 4 -4
13 -2 21 4 7 6 13 8 13 3 0 -5 19 -10 43 -10 23 -1 103 -5 177 -10 74 -4 161
-8 192 -8 32 -1 58 -3 58 -6 0 -3 34 -5 75 -5 41 0 75 -3 75 -7 0 -4 14 -3 30
2 17 5 30 6 30 2 0 -6 108 -14 222 -16 27 -1 48 -3 48 -6 0 -4 95 -10 227 -14
24 0 43 -5 43 -10 0 -5 6 -4 13 3 10 8 17 7 25 -1 9 -9 12 -9 12 1 0 7 5 9 12
4 7 -4 44 -9 83 -10 38 -2 97 -5 130 -6 33 -2 79 2 102 8 49 15 106 53 98 66
-4 5 -2 9 4 9 20 0 35 76 46 240 2 25 4 45 5 45 1 0 3 29 5 65 2 36 6 97 10
135 3 39 8 108 10 154 3 54 9 87 17 93 7 4 8 8 2 8 -6 0 -10 10 -8 22 1 13 3
23 4 23 3 0 12 146 14 217 0 32 4 58 7 58 4 0 5 15 4 33 -1 17 1 39 6 48 8 15
53 35 71 31 4 -1 10 7 13 18 4 11 10 20 14 20 4 0 8 6 9 13 5 34 12 104 12
117 0 158 2 215 6 222 9 13 -16 38 -37 38 -11 0 -19 4 -19 9 0 4 -10 8 -22 7
-25 -1 -25 -2 -13 289 3 55 7 181 10 280 2 99 7 221 10 270 7 99 8 232 3 255
-7 27 -37 75 -61 97 -44 41 -81 50 -230 58 -54 2 -103 7 -108 10 -5 4 -9 0 -9
-7 0 -8 -3 -9 -8 -3 -4 6 -36 11 -72 12 -36 0 -127 3 -202 5 -76 1 -138 7
-138 11 0 4 -8 4 -17 -2 -10 -5 -26 -5 -40 0 -14 5 -23 5 -23 -1 0 -5 -12 -5
-30 0 -21 6 -30 5 -30 -3 0 -8 -3 -8 -8 -2 -4 6 -27 11 -52 12 -134 4 -404 14
-535 19 -82 4 -178 7 -212 8 -35 1 -63 3 -63 6 0 8 -190 7 -196 -1z"/>
</g>
</svg>
