<svg viewBox="0 0 25 25" xmlns="http://www.w3.org/2000/svg"><path fill-rule="evenodd" clip-rule="evenodd" d="M7.813 0h9.375A7.813 7.813 0 0125 7.813v9.375A7.813 7.813 0 0117.187 25H7.813A7.813 7.813 0 010 17.187V7.813A7.813 7.813 0 017.813 0zm9.375 22.656a5.475 5.475 0 005.468-5.468V7.813a5.475 5.475 0 00-5.468-5.47H7.813a5.475 5.475 0 00-5.47 5.47v9.375a5.475 5.475 0 005.47 5.468h9.375z"/><path fill-rule="evenodd" clip-rule="evenodd" d="M6.25 12.5a6.25 6.25 0 1112.5 0 6.25 6.25 0 01-12.5 0zm2.344 0a3.912 3.912 0 003.906 3.906 3.912 3.912 0 003.906-3.906A3.91 3.91 0 0012.5 8.594 3.91 3.91 0 008.594 12.5z"/><path d="M19.219 6.614a.833.833 0 100-1.666.833.833 0 000 1.666z"/></svg>