<svg version="1.0" xmlns="http://www.w3.org/2000/svg" viewBox="0 0 100 100"><path d="M42.6 9.1C26 11.8 11.7 26.6 8.9 43.9 4.1 74.3 35.6 100 64.3 89.1c1.9-.7 2.7-1.8 2.7-3.5 0-4-2.2-5-8.1-3.6-7 1.7-17.3.8-23.2-2-6.1-2.9-12.7-9.5-15.8-15.7-2-4-2.4-6.3-2.4-14.3 0-11.2 2-16.4 9.1-23.4 7-7.1 12.2-9.1 23.4-9.1s16.4 2 23.4 9.1c6.3 6.3 8.8 12.3 9.4 22.2.4 7.6.3 8.5-1.8 10.7-3.1 3.3-8.8 3.4-11.8.2-2-2.1-2.2-3.4-2.2-14.9 0-10.2-.3-13-1.6-14.2-2-2-3.3-2-5.5 0-1.6 1.5-2.2 1.5-6.3-.1-8.2-3.1-16.5.1-21.4 8.3-3.7 6.4-3.8 15.7-.3 21.9 2.9 5 8.1 8.9 13.4 9.8 4.4.8 11.4-1.4 14.2-4.5 1.7-1.9 1.8-1.9 4.7.5 1.6 1.3 4.7 3 6.8 3.6 8.2 2.5 17.6-3.3 20-12.2 1.7-5.9.1-17.8-3.3-25.3C82.2 20.7 69.6 11.1 56.5 9c-6.7-1.1-7-1.1-13.9.1zM53 39.3c6.7 5.2 6.7 16.2 0 21.4-1.9 1.5-7.5 1.7-10.1.3-6.3-3.4-6.4-18.3-.2-21.9 2.5-1.4 8.5-1.3 10.3.2z"/></svg>