<svg width="28" height="1822" fill="none" xmlns="http://www.w3.org/2000/svg"><path transform="matrix(-.00036 -1 1 -.00268 28 1803.4)" stroke="#5E4338" stroke-dasharray="4 2" d="M0-.5h1802.4"/><path transform="matrix(-.00016 -1 .99996 -.00875 12.76 1818.82)" stroke="#FF6B35" stroke-dasharray="4 2" d="M0-.5h1817.82"/><path transform="rotate(-90.01 905.473 888.98) skewX(.073)" stroke="#FF6B35" stroke-dasharray="4 2" d="M0-.5h1793.6"/><path transform="matrix(-.00016 -1 .99996 -.00875 20.23 1818.82)" stroke="#F5F5F5" stroke-dasharray="4 2" d="M0-.5h1817.82"/><path transform="matrix(-.00006 -1 1 -.0005 23.816 1794.6)" stroke="#5E4338" stroke-dasharray="4 2" d="M0-.5h1791.42"/><path transform="matrix(-.0002 -1 .99997 -.00736 1.403 1821)" stroke="#5E4338" stroke-dasharray="4 2" d="M0-.5h1817.82"/><path transform="matrix(-.00022 -1 1 -.00194 5.289 1803.41)" stroke="#5E4338" stroke-dasharray="4 2" d="M0-.5h1800.22"/><path transform="rotate(-90.013 896.695 888.024) skewX(.1)" stroke="#5E4338" stroke-dasharray="4 2" d="M0-.5h1781.74"/></svg>