<svg width="1001" height="93" viewBox="0 0 1001 93" fill="none" xmlns="http://www.w3.org/2000/svg">
<line y1="-0.5" x2="990.336" y2="-0.5" transform="matrix(-0.999994 0.0034075 -0.000279953 -1 990.332 0)" stroke="#5E4338" stroke-dasharray="4 2"/>
<line y1="-0.5" x2="998.802" y2="-0.5" transform="matrix(-0.999999 0.00100317 -0.00143319 -0.999999 998.803 51.1)" stroke="#FF6B35" stroke-dasharray="4 2"/>
<line y1="-0.5" x2="985.494" y2="-0.5" transform="matrix(-1 0.00101686 -0.000236845 -1 985.494 38.0747)" stroke="#FF6B35" stroke-dasharray="4 2"/>
<line y1="-0.5" x2="998.802" y2="-0.5" transform="matrix(-0.999999 0.00100317 -0.00143319 -0.999999 998.803 26.0515)" stroke="#F5F5F5" stroke-dasharray="4 2"/>
<line y1="-0.5" x2="984.295" y2="-0.5" transform="matrix(-1 0.000356082 -8.29336e-05 -1 985.494 14.028)" stroke="#5E4338" stroke-dasharray="4 2"/>
<line y1="-0.5" x2="998.802" y2="-0.5" transform="matrix(-0.999998 0.00191509 -0.000750739 -1 1000 89.1738)" stroke="#5E4338" stroke-dasharray="4 2"/>
<line y1="-0.5" x2="989.134" y2="-0.5" transform="matrix(-0.999999 0.00136822 -0.000318684 -1 990.333 76.1472)" stroke="#5E4338" stroke-dasharray="4 2"/>
<line y1="-0.5" x2="978.977" y2="-0.5" transform="matrix(-0.999999 0.00138147 -0.000321772 -1 980.175 64.1252)" stroke="#5E4338" stroke-dasharray="4 2"/>
</svg>
