<svg width="29" height="429" fill="none" xmlns="http://www.w3.org/2000/svg"><path transform="rotate(-90.087 225.611 197.95) skewX(-.051)" stroke="#F5F5F5" stroke-dasharray="4 2" d="M0-.5h423.861"/><path transform="rotate(-90.04 219.976 207.367) skewX(.078)" stroke="#FF6B35" stroke-dasharray="4 2" d="M0-.5h427.487"/><path transform="matrix(-.0007 -1 1 -.00034 16.648 421.791)" stroke="#FF6B35" stroke-dasharray="4 2" d="M0-.5h421.791"/><path transform="rotate(-90.04 223.71 203.634) skewX(.078)" stroke="#F5F5F5" stroke-dasharray="4 2" d="M0-.5h427.487"/><path transform="matrix(-.00025 -1 1 -.00012 23.82 421.791)" stroke="#F5F5F5" stroke-dasharray="4 2" d="M0-.5h421.278"/><path transform="matrix(-.00095 -1 1 -.00151 1.407 428)" stroke="#F5F5F5" stroke-dasharray="4 2" d="M0-.5h427.487"/><path transform="matrix(-.00095 -1 1 -.00046 5.292 423.862)" stroke="#F5F5F5" stroke-dasharray="4 2" d="M0-.5h423.349"/><path transform="matrix(-.00096 -1 1 -.00046 8.878 419.514)" stroke="#F5F5F5" stroke-dasharray="4 2" d="M0-.5h419.002"/></svg>