<svg width="426" height="95" fill="none" xmlns="http://www.w3.org/2000/svg"><path transform="matrix(-1 -.00069 .00859 -.99996 421.277 3.816)" stroke="#5E4338" stroke-dasharray="4 2" d="M0-.5h420.904"/><path transform="rotate(-179.638 212.304 26.8) skewX(-.1)" stroke="#FF6B35" stroke-dasharray="4 2" d="M0-.5h424.493"/><path transform="rotate(-179.638 209.511 20.275) skewX(-.131)" stroke="#FF6B35" stroke-dasharray="4 2" d="M0-.5h418.837"/><path transform="rotate(-179.638 212.373 14.275) skewX(-.1)" stroke="#F5F5F5" stroke-dasharray="4 2" d="M0-.5h424.493"/><path transform="rotate(-179.549 209.585 8.088) skewX(-.046)" stroke="#5E4338" stroke-dasharray="4 2" d="M0-.5h418.326"/><path transform="rotate(-179.666 212.439 45.901) skewX(-.142)" stroke="#5E4338" stroke-dasharray="4 2" d="M0-.5h424.494"/><path transform="rotate(-179.686 210.417 39.403) skewX(-.177)" stroke="#5E4338" stroke-dasharray="4 2" d="M0-.5h420.384"/><path transform="rotate(-179.744 208.294 33.383) skewX(-.178)" stroke="#5E4338" stroke-dasharray="4 2" d="M0-.5h416.068"/></svg>