<svg width="124" height="28" fill="none" xmlns="http://www.w3.org/2000/svg"><path transform="matrix(-.99997 .0082 -.00012 -1 122.801 0)" stroke="#5E4338" stroke-dasharray="4 2" d="M0-.5h122.806"/><path transform="rotate(179.86 61.917 7.695) skewX(-.104)" stroke="#FF6B35" stroke-dasharray="4 2" d="M0-.5h123.853"/><path transform="rotate(179.86 61.094 5.753) skewX(-.134)" stroke="#FF6B35" stroke-dasharray="4 2" d="M0-.5h122.203"/><path transform="rotate(179.86 61.921 3.96) skewX(-.104)" stroke="#F5F5F5" stroke-dasharray="4 2" d="M0-.5h123.853"/><path transform="matrix(1 0 .00082 1 122.2 4.236)" stroke="#5E4338" stroke-dasharray="4 2" d="M0-.5h122.054"/><path transform="matrix(-1 .00326 -.00044 -1 124 26.597)" stroke="#5E4338" stroke-dasharray="4 2" d="M0-.5h123.853"/><path transform="matrix(-1 .00316 0 -1 122.8 22.72)" stroke="#5E4338" stroke-dasharray="4 2" d="M0-.5h122.654"/><path transform="matrix(-1 .00332 -.00013 -1 121.542 19.126)" stroke="#5E4338" stroke-dasharray="4 2" d="M0-.5h121.395"/></svg>